<mxfile host="Electron" modified="2024-12-21T21:48:26.208Z" agent="Mozilla/5.0 (Windows NT 10.0; Win64; x64) AppleWebKit/537.36 (KHTML, like Gecko) draw.io/24.0.4 Chrome/120.0.6099.109 Electron/28.1.0 Safari/537.36" etag="yIoQpo-ebkvrk5lNGtTe" version="24.0.4" type="device">
  <diagram name="Seite-1" id="OyORMryIinRZ8M1OeOtJ">
    <mxGraphModel dx="2022" dy="1866" grid="1" gridSize="10" guides="1" tooltips="1" connect="1" arrows="1" fold="1" page="1" pageScale="1" pageWidth="827" pageHeight="1169" math="0" shadow="0">
      <root>
        <mxCell id="0" />
        <mxCell id="1" parent="0" />
        <mxCell id="4p8viMvOz0Yd_kHmtFlp-75" value="" style="rounded=1;whiteSpace=wrap;html=1;" parent="1" vertex="1">
          <mxGeometry x="660" y="30" width="390" height="190" as="geometry" />
        </mxCell>
        <mxCell id="4p8viMvOz0Yd_kHmtFlp-72" value="" style="rounded=1;whiteSpace=wrap;html=1;" parent="1" vertex="1">
          <mxGeometry x="324" y="-210" width="400" height="190" as="geometry" />
        </mxCell>
        <mxCell id="4p8viMvOz0Yd_kHmtFlp-56" value="" style="rounded=1;whiteSpace=wrap;html=1;" parent="1" vertex="1">
          <mxGeometry x="70" y="30" width="320" height="150" as="geometry" />
        </mxCell>
        <mxCell id="4p8viMvOz0Yd_kHmtFlp-1" value="enables Name/Rename" style="rounded=1;whiteSpace=wrap;html=1;" parent="1" vertex="1">
          <mxGeometry x="770" y="40" width="80" height="30" as="geometry" />
        </mxCell>
        <mxCell id="4p8viMvOz0Yd_kHmtFlp-7" value="max SoldAnzahl" style="rounded=1;whiteSpace=wrap;html=1;" parent="1" vertex="1">
          <mxGeometry x="344" y="-198" width="80" height="30" as="geometry" />
        </mxCell>
        <mxCell id="4p8viMvOz0Yd_kHmtFlp-8" value="max SoldAnzahl" style="rounded=1;whiteSpace=wrap;html=1;" parent="1" vertex="1">
          <mxGeometry x="344" y="-159" width="80" height="30" as="geometry" />
        </mxCell>
        <mxCell id="4p8viMvOz0Yd_kHmtFlp-9" value="max SoldAnzahl" style="rounded=1;whiteSpace=wrap;html=1;" parent="1" vertex="1">
          <mxGeometry x="344" y="-119" width="80" height="30" as="geometry" />
        </mxCell>
        <mxCell id="4p8viMvOz0Yd_kHmtFlp-10" value="max SoldAnzahl" style="rounded=1;whiteSpace=wrap;html=1;" parent="1" vertex="1">
          <mxGeometry x="344" y="-80" width="80" height="30" as="geometry" />
        </mxCell>
        <mxCell id="4p8viMvOz0Yd_kHmtFlp-11" value="Run Speed +10%" style="rounded=1;whiteSpace=wrap;html=1;" parent="1" vertex="1">
          <mxGeometry x="438" y="-199" width="80" height="30" as="geometry" />
        </mxCell>
        <mxCell id="4p8viMvOz0Yd_kHmtFlp-13" value="Run Speed +10%" style="rounded=1;whiteSpace=wrap;html=1;" parent="1" vertex="1">
          <mxGeometry x="438" y="-159" width="80" height="30" as="geometry" />
        </mxCell>
        <mxCell id="4p8viMvOz0Yd_kHmtFlp-14" value="Run Speed +10%" style="rounded=1;whiteSpace=wrap;html=1;" parent="1" vertex="1">
          <mxGeometry x="438" y="-119" width="80" height="30" as="geometry" />
        </mxCell>
        <mxCell id="4p8viMvOz0Yd_kHmtFlp-15" value="Run Speed +10%" style="rounded=1;whiteSpace=wrap;html=1;" parent="1" vertex="1">
          <mxGeometry x="438" y="-79" width="80" height="30" as="geometry" />
        </mxCell>
        <mxCell id="4p8viMvOz0Yd_kHmtFlp-16" value="Crit Chance +10%" style="rounded=1;whiteSpace=wrap;html=1;" parent="1" vertex="1">
          <mxGeometry x="524" y="-198" width="80" height="30" as="geometry" />
        </mxCell>
        <mxCell id="4p8viMvOz0Yd_kHmtFlp-17" value="Crit Chance +10%" style="rounded=1;whiteSpace=wrap;html=1;" parent="1" vertex="1">
          <mxGeometry x="524" y="-159" width="80" height="30" as="geometry" />
        </mxCell>
        <mxCell id="4p8viMvOz0Yd_kHmtFlp-18" value="Crit Chance +10%" style="rounded=1;whiteSpace=wrap;html=1;" parent="1" vertex="1">
          <mxGeometry x="524" y="-118" width="80" height="30" as="geometry" />
        </mxCell>
        <mxCell id="4p8viMvOz0Yd_kHmtFlp-19" value="Crit Chance +10%" style="rounded=1;whiteSpace=wrap;html=1;" parent="1" vertex="1">
          <mxGeometry x="524" y="-79" width="80" height="30" as="geometry" />
        </mxCell>
        <mxCell id="4p8viMvOz0Yd_kHmtFlp-20" value="Schaltet Statistik frei" style="rounded=1;whiteSpace=wrap;html=1;" parent="1" vertex="1">
          <mxGeometry x="680" y="40" width="80" height="30" as="geometry" />
        </mxCell>
        <mxCell id="4p8viMvOz0Yd_kHmtFlp-21" value="Schaltet Auslastung frei" style="rounded=1;whiteSpace=wrap;html=1;" parent="1" vertex="1">
          <mxGeometry x="680" y="80" width="80" height="50" as="geometry" />
        </mxCell>
        <mxCell id="4p8viMvOz0Yd_kHmtFlp-22" value="enabled Handgranate, die bei Klicken geld generiert" style="rounded=1;whiteSpace=wrap;html=1;" parent="1" vertex="1">
          <mxGeometry x="860" y="40" width="80" height="70" as="geometry" />
        </mxCell>
        <mxCell id="4p8viMvOz0Yd_kHmtFlp-23" value="10% more Income" style="rounded=1;whiteSpace=wrap;html=1;" parent="1" vertex="1">
          <mxGeometry x="614" y="-198" width="80" height="30" as="geometry" />
        </mxCell>
        <mxCell id="4p8viMvOz0Yd_kHmtFlp-24" value="10% more Income" style="rounded=1;whiteSpace=wrap;html=1;" parent="1" vertex="1">
          <mxGeometry x="614" y="-159" width="80" height="30" as="geometry" />
        </mxCell>
        <mxCell id="4p8viMvOz0Yd_kHmtFlp-25" value="10% more Income" style="rounded=1;whiteSpace=wrap;html=1;" parent="1" vertex="1">
          <mxGeometry x="614" y="-118" width="80" height="30" as="geometry" />
        </mxCell>
        <mxCell id="4p8viMvOz0Yd_kHmtFlp-26" value="10% more Income" style="rounded=1;whiteSpace=wrap;html=1;" parent="1" vertex="1">
          <mxGeometry x="614" y="-79" width="80" height="30" as="geometry" />
        </mxCell>
        <mxCell id="4p8viMvOz0Yd_kHmtFlp-27" value="...." style="text;html=1;align=center;verticalAlign=middle;whiteSpace=wrap;rounded=0;" parent="1" vertex="1">
          <mxGeometry x="624" y="-39" width="60" height="30" as="geometry" />
        </mxCell>
        <mxCell id="4p8viMvOz0Yd_kHmtFlp-59" style="edgeStyle=orthogonalEdgeStyle;rounded=0;orthogonalLoop=1;jettySize=auto;html=1;" parent="1" source="4p8viMvOz0Yd_kHmtFlp-37" target="4p8viMvOz0Yd_kHmtFlp-38" edge="1">
          <mxGeometry relative="1" as="geometry" />
        </mxCell>
        <mxCell id="4p8viMvOz0Yd_kHmtFlp-37" value="reduziert Panz UpgradeCost" style="rounded=1;whiteSpace=wrap;html=1;" parent="1" vertex="1">
          <mxGeometry x="280" y="50" width="80" height="30" as="geometry" />
        </mxCell>
        <mxCell id="4p8viMvOz0Yd_kHmtFlp-60" style="edgeStyle=orthogonalEdgeStyle;rounded=0;orthogonalLoop=1;jettySize=auto;html=1;" parent="1" source="4p8viMvOz0Yd_kHmtFlp-38" target="4p8viMvOz0Yd_kHmtFlp-39" edge="1">
          <mxGeometry relative="1" as="geometry" />
        </mxCell>
        <mxCell id="4p8viMvOz0Yd_kHmtFlp-38" value="reduziert Panz UpgradeCost" style="rounded=1;whiteSpace=wrap;html=1;" parent="1" vertex="1">
          <mxGeometry x="180" y="50" width="80" height="30" as="geometry" />
        </mxCell>
        <mxCell id="4p8viMvOz0Yd_kHmtFlp-39" value="reduziert Panz UpgradeCost" style="rounded=1;whiteSpace=wrap;html=1;" parent="1" vertex="1">
          <mxGeometry x="80" y="50" width="80" height="30" as="geometry" />
        </mxCell>
        <mxCell id="4p8viMvOz0Yd_kHmtFlp-40" value="reduziert Panz UpgradeCost" style="rounded=1;whiteSpace=wrap;html=1;" parent="1" vertex="1">
          <mxGeometry x="130" y="322" width="80" height="30" as="geometry" />
        </mxCell>
        <mxCell id="4p8viMvOz0Yd_kHmtFlp-41" value="reduziert Panz UpgradeCost" style="rounded=1;whiteSpace=wrap;html=1;" parent="1" vertex="1">
          <mxGeometry x="130" y="361" width="80" height="30" as="geometry" />
        </mxCell>
        <mxCell id="4p8viMvOz0Yd_kHmtFlp-42" value="reduziert Panz UpgradeCost" style="rounded=1;whiteSpace=wrap;html=1;" parent="1" vertex="1">
          <mxGeometry x="130" y="401" width="80" height="30" as="geometry" />
        </mxCell>
        <mxCell id="4p8viMvOz0Yd_kHmtFlp-43" value="reduziert Panz UpgradeCost" style="rounded=1;whiteSpace=wrap;html=1;" parent="1" vertex="1">
          <mxGeometry x="40" y="322" width="80" height="30" as="geometry" />
        </mxCell>
        <mxCell id="4p8viMvOz0Yd_kHmtFlp-44" value="reduziert Panz UpgradeCost" style="rounded=1;whiteSpace=wrap;html=1;" parent="1" vertex="1">
          <mxGeometry x="40" y="361" width="80" height="30" as="geometry" />
        </mxCell>
        <mxCell id="4p8viMvOz0Yd_kHmtFlp-45" value="reduziert Panz UpgradeCost" style="rounded=1;whiteSpace=wrap;html=1;" parent="1" vertex="1">
          <mxGeometry x="40" y="401" width="80" height="30" as="geometry" />
        </mxCell>
        <mxCell id="4p8viMvOz0Yd_kHmtFlp-46" value="reduziert Panz UpgradeCost" style="rounded=1;whiteSpace=wrap;html=1;" parent="1" vertex="1">
          <mxGeometry x="-50" y="322" width="80" height="30" as="geometry" />
        </mxCell>
        <mxCell id="4p8viMvOz0Yd_kHmtFlp-47" value="reduziert Panz UpgradeCost" style="rounded=1;whiteSpace=wrap;html=1;" parent="1" vertex="1">
          <mxGeometry x="-50" y="361" width="80" height="30" as="geometry" />
        </mxCell>
        <mxCell id="4p8viMvOz0Yd_kHmtFlp-48" value="reduziert Panz UpgradeCost" style="rounded=1;whiteSpace=wrap;html=1;" parent="1" vertex="1">
          <mxGeometry x="-50" y="401" width="80" height="30" as="geometry" />
        </mxCell>
        <mxCell id="4p8viMvOz0Yd_kHmtFlp-49" value="reduziert Panz UpgradeCost" style="rounded=1;whiteSpace=wrap;html=1;" parent="1" vertex="1">
          <mxGeometry x="-140" y="322" width="80" height="30" as="geometry" />
        </mxCell>
        <mxCell id="4p8viMvOz0Yd_kHmtFlp-50" value="reduziert Panz UpgradeCost" style="rounded=1;whiteSpace=wrap;html=1;" parent="1" vertex="1">
          <mxGeometry x="-140" y="361" width="80" height="30" as="geometry" />
        </mxCell>
        <mxCell id="4p8viMvOz0Yd_kHmtFlp-51" value="reduziert Panz UpgradeCost" style="rounded=1;whiteSpace=wrap;html=1;" parent="1" vertex="1">
          <mxGeometry x="-140" y="401" width="80" height="30" as="geometry" />
        </mxCell>
        <mxCell id="4p8viMvOz0Yd_kHmtFlp-52" value="reduziert Panz UpgradeCost" style="rounded=1;whiteSpace=wrap;html=1;" parent="1" vertex="1">
          <mxGeometry x="-230" y="320.5" width="80" height="30" as="geometry" />
        </mxCell>
        <mxCell id="4p8viMvOz0Yd_kHmtFlp-53" value="reduziert Panz UpgradeCost" style="rounded=1;whiteSpace=wrap;html=1;" parent="1" vertex="1">
          <mxGeometry x="-230" y="359.5" width="80" height="30" as="geometry" />
        </mxCell>
        <mxCell id="4p8viMvOz0Yd_kHmtFlp-54" value="reduziert Panz UpgradeCost" style="rounded=1;whiteSpace=wrap;html=1;" parent="1" vertex="1">
          <mxGeometry x="-230" y="399.5" width="80" height="30" as="geometry" />
        </mxCell>
        <mxCell id="4p8viMvOz0Yd_kHmtFlp-58" style="edgeStyle=orthogonalEdgeStyle;rounded=0;orthogonalLoop=1;jettySize=auto;html=1;" parent="1" source="4p8viMvOz0Yd_kHmtFlp-55" target="4p8viMvOz0Yd_kHmtFlp-56" edge="1">
          <mxGeometry relative="1" as="geometry" />
        </mxCell>
        <mxCell id="4p8viMvOz0Yd_kHmtFlp-76" style="edgeStyle=orthogonalEdgeStyle;rounded=0;orthogonalLoop=1;jettySize=auto;html=1;" parent="1" source="4p8viMvOz0Yd_kHmtFlp-55" target="4p8viMvOz0Yd_kHmtFlp-75" edge="1">
          <mxGeometry relative="1" as="geometry" />
        </mxCell>
        <mxCell id="4p8viMvOz0Yd_kHmtFlp-79" style="edgeStyle=orthogonalEdgeStyle;rounded=0;orthogonalLoop=1;jettySize=auto;html=1;" parent="1" source="4p8viMvOz0Yd_kHmtFlp-55" target="4p8viMvOz0Yd_kHmtFlp-72" edge="1">
          <mxGeometry relative="1" as="geometry" />
        </mxCell>
        <mxCell id="4p8viMvOz0Yd_kHmtFlp-55" value="Schaltet Reset frei" style="rounded=1;whiteSpace=wrap;html=1;" parent="1" vertex="1">
          <mxGeometry x="484" y="90" width="80" height="30" as="geometry" />
        </mxCell>
        <mxCell id="4p8viMvOz0Yd_kHmtFlp-57" value="Mission" style="text;html=1;align=center;verticalAlign=middle;whiteSpace=wrap;rounded=0;" parent="1" vertex="1">
          <mxGeometry x="390" y="80" width="60" height="30" as="geometry" />
        </mxCell>
        <mxCell id="4p8viMvOz0Yd_kHmtFlp-61" value="reduziert Panz UpgradeCost" style="rounded=1;whiteSpace=wrap;html=1;" parent="1" vertex="1">
          <mxGeometry x="280" y="90" width="80" height="30" as="geometry" />
        </mxCell>
        <mxCell id="4p8viMvOz0Yd_kHmtFlp-62" style="edgeStyle=orthogonalEdgeStyle;rounded=0;orthogonalLoop=1;jettySize=auto;html=1;" parent="1" source="4p8viMvOz0Yd_kHmtFlp-61" target="4p8viMvOz0Yd_kHmtFlp-63" edge="1">
          <mxGeometry relative="1" as="geometry" />
        </mxCell>
        <mxCell id="4p8viMvOz0Yd_kHmtFlp-63" value="reduziert Panz UpgradeCost" style="rounded=1;whiteSpace=wrap;html=1;" parent="1" vertex="1">
          <mxGeometry x="180" y="90" width="80" height="30" as="geometry" />
        </mxCell>
        <mxCell id="4p8viMvOz0Yd_kHmtFlp-64" style="edgeStyle=orthogonalEdgeStyle;rounded=0;orthogonalLoop=1;jettySize=auto;html=1;" parent="1" source="4p8viMvOz0Yd_kHmtFlp-63" target="4p8viMvOz0Yd_kHmtFlp-65" edge="1">
          <mxGeometry relative="1" as="geometry" />
        </mxCell>
        <mxCell id="4p8viMvOz0Yd_kHmtFlp-65" value="reduziert Panz UpgradeCost" style="rounded=1;whiteSpace=wrap;html=1;" parent="1" vertex="1">
          <mxGeometry x="80" y="90" width="80" height="30" as="geometry" />
        </mxCell>
        <mxCell id="4p8viMvOz0Yd_kHmtFlp-66" value="reduziert Panz UpgradeCost" style="rounded=1;whiteSpace=wrap;html=1;" parent="1" vertex="1">
          <mxGeometry x="280" y="130" width="80" height="30" as="geometry" />
        </mxCell>
        <mxCell id="4p8viMvOz0Yd_kHmtFlp-67" style="edgeStyle=orthogonalEdgeStyle;rounded=0;orthogonalLoop=1;jettySize=auto;html=1;" parent="1" source="4p8viMvOz0Yd_kHmtFlp-66" target="4p8viMvOz0Yd_kHmtFlp-68" edge="1">
          <mxGeometry relative="1" as="geometry" />
        </mxCell>
        <mxCell id="4p8viMvOz0Yd_kHmtFlp-68" value="reduziert Panz UpgradeCost" style="rounded=1;whiteSpace=wrap;html=1;" parent="1" vertex="1">
          <mxGeometry x="180" y="130" width="80" height="30" as="geometry" />
        </mxCell>
        <mxCell id="4p8viMvOz0Yd_kHmtFlp-69" style="edgeStyle=orthogonalEdgeStyle;rounded=0;orthogonalLoop=1;jettySize=auto;html=1;" parent="1" source="4p8viMvOz0Yd_kHmtFlp-68" target="4p8viMvOz0Yd_kHmtFlp-70" edge="1">
          <mxGeometry relative="1" as="geometry" />
        </mxCell>
        <mxCell id="4p8viMvOz0Yd_kHmtFlp-70" value="reduziert Panz UpgradeCost" style="rounded=1;whiteSpace=wrap;html=1;" parent="1" vertex="1">
          <mxGeometry x="80" y="130" width="80" height="30" as="geometry" />
        </mxCell>
        <mxCell id="4p8viMvOz0Yd_kHmtFlp-74" value="Soldiers" style="text;html=1;align=center;verticalAlign=middle;whiteSpace=wrap;rounded=0;" parent="1" vertex="1">
          <mxGeometry x="550" y="190" width="60" height="30" as="geometry" />
        </mxCell>
        <mxCell id="4p8viMvOz0Yd_kHmtFlp-77" value="Specials" style="text;html=1;align=center;verticalAlign=middle;whiteSpace=wrap;rounded=0;" parent="1" vertex="1">
          <mxGeometry x="600" y="80" width="60" height="30" as="geometry" />
        </mxCell>
        <mxCell id="lWsWk-xR8rJO-psTGuyg-27" value="*" style="edgeStyle=orthogonalEdgeStyle;rounded=0;orthogonalLoop=1;jettySize=auto;html=1;" edge="1" parent="1" source="lWsWk-xR8rJO-psTGuyg-28" target="lWsWk-xR8rJO-psTGuyg-4">
          <mxGeometry x="0.5385" y="15" relative="1" as="geometry">
            <mxPoint x="-645" y="-240" as="sourcePoint" />
            <mxPoint as="offset" />
          </mxGeometry>
        </mxCell>
        <mxCell id="lWsWk-xR8rJO-psTGuyg-4" value="Skill" style="swimlane;fontStyle=1;align=center;verticalAlign=top;childLayout=stackLayout;horizontal=1;startSize=26;horizontalStack=0;resizeParent=1;resizeParentMax=0;resizeLast=0;collapsible=1;marginBottom=0;whiteSpace=wrap;html=1;" vertex="1" parent="1">
          <mxGeometry x="-725" y="-175" width="160" height="190" as="geometry" />
        </mxCell>
        <mxCell id="lWsWk-xR8rJO-psTGuyg-5" value="SkillType" style="text;strokeColor=none;fillColor=none;align=left;verticalAlign=top;spacingLeft=4;spacingRight=4;overflow=hidden;rotatable=0;points=[[0,0.5],[1,0.5]];portConstraint=eastwest;whiteSpace=wrap;html=1;" vertex="1" parent="lWsWk-xR8rJO-psTGuyg-4">
          <mxGeometry y="26" width="160" height="26" as="geometry" />
        </mxCell>
        <mxCell id="lWsWk-xR8rJO-psTGuyg-26" value="RequirementSkill" style="text;strokeColor=none;fillColor=none;align=left;verticalAlign=top;spacingLeft=4;spacingRight=4;overflow=hidden;rotatable=0;points=[[0,0.5],[1,0.5]];portConstraint=eastwest;whiteSpace=wrap;html=1;" vertex="1" parent="lWsWk-xR8rJO-psTGuyg-4">
          <mxGeometry y="52" width="160" height="26" as="geometry" />
        </mxCell>
        <mxCell id="lWsWk-xR8rJO-psTGuyg-42" value="Unlocked" style="text;strokeColor=none;fillColor=none;align=left;verticalAlign=top;spacingLeft=4;spacingRight=4;overflow=hidden;rotatable=0;points=[[0,0.5],[1,0.5]];portConstraint=eastwest;whiteSpace=wrap;html=1;" vertex="1" parent="lWsWk-xR8rJO-psTGuyg-4">
          <mxGeometry y="78" width="160" height="26" as="geometry" />
        </mxCell>
        <mxCell id="lWsWk-xR8rJO-psTGuyg-43" value="Cost" style="text;strokeColor=none;fillColor=none;align=left;verticalAlign=top;spacingLeft=4;spacingRight=4;overflow=hidden;rotatable=0;points=[[0,0.5],[1,0.5]];portConstraint=eastwest;whiteSpace=wrap;html=1;" vertex="1" parent="lWsWk-xR8rJO-psTGuyg-4">
          <mxGeometry y="104" width="160" height="26" as="geometry" />
        </mxCell>
        <mxCell id="lWsWk-xR8rJO-psTGuyg-6" value="" style="line;strokeWidth=1;fillColor=none;align=left;verticalAlign=middle;spacingTop=-1;spacingLeft=3;spacingRight=3;rotatable=0;labelPosition=right;points=[];portConstraint=eastwest;strokeColor=inherit;" vertex="1" parent="lWsWk-xR8rJO-psTGuyg-4">
          <mxGeometry y="130" width="160" height="8" as="geometry" />
        </mxCell>
        <mxCell id="lWsWk-xR8rJO-psTGuyg-47" value="Base-Img:Image" style="text;strokeColor=none;fillColor=none;align=left;verticalAlign=top;spacingLeft=4;spacingRight=4;overflow=hidden;rotatable=0;points=[[0,0.5],[1,0.5]];portConstraint=eastwest;whiteSpace=wrap;html=1;" vertex="1" parent="lWsWk-xR8rJO-psTGuyg-4">
          <mxGeometry y="138" width="160" height="26" as="geometry" />
        </mxCell>
        <mxCell id="lWsWk-xR8rJO-psTGuyg-48" value="Icon: Image" style="text;strokeColor=none;fillColor=none;align=left;verticalAlign=top;spacingLeft=4;spacingRight=4;overflow=hidden;rotatable=0;points=[[0,0.5],[1,0.5]];portConstraint=eastwest;whiteSpace=wrap;html=1;" vertex="1" parent="lWsWk-xR8rJO-psTGuyg-4">
          <mxGeometry y="164" width="160" height="26" as="geometry" />
        </mxCell>
        <mxCell id="lWsWk-xR8rJO-psTGuyg-12" value="GlobalModifier" style="swimlane;fontStyle=1;align=center;verticalAlign=top;childLayout=stackLayout;horizontal=1;startSize=26;horizontalStack=0;resizeParent=1;resizeParentMax=0;resizeLast=0;collapsible=1;marginBottom=0;whiteSpace=wrap;html=1;" vertex="1" parent="1">
          <mxGeometry x="-250" y="-440" width="230" height="164" as="geometry" />
        </mxCell>
        <mxCell id="lWsWk-xR8rJO-psTGuyg-13" value="MovementSpeed: ModComponent[]" style="text;strokeColor=none;fillColor=none;align=left;verticalAlign=top;spacingLeft=4;spacingRight=4;overflow=hidden;rotatable=0;points=[[0,0.5],[1,0.5]];portConstraint=eastwest;whiteSpace=wrap;html=1;" vertex="1" parent="lWsWk-xR8rJO-psTGuyg-12">
          <mxGeometry y="26" width="230" height="26" as="geometry" />
        </mxCell>
        <mxCell id="lWsWk-xR8rJO-psTGuyg-16" value="Army_Mission_Count ModComponent[]" style="text;strokeColor=none;fillColor=none;align=left;verticalAlign=top;spacingLeft=4;spacingRight=4;overflow=hidden;rotatable=0;points=[[0,0.5],[1,0.5]];portConstraint=eastwest;whiteSpace=wrap;html=1;" vertex="1" parent="lWsWk-xR8rJO-psTGuyg-12">
          <mxGeometry y="52" width="230" height="26" as="geometry" />
        </mxCell>
        <mxCell id="lWsWk-xR8rJO-psTGuyg-17" value="MaxSOldierCount : ModComponent[]" style="text;strokeColor=none;fillColor=none;align=left;verticalAlign=top;spacingLeft=4;spacingRight=4;overflow=hidden;rotatable=0;points=[[0,0.5],[1,0.5]];portConstraint=eastwest;whiteSpace=wrap;html=1;" vertex="1" parent="lWsWk-xR8rJO-psTGuyg-12">
          <mxGeometry y="78" width="230" height="26" as="geometry" />
        </mxCell>
        <mxCell id="lWsWk-xR8rJO-psTGuyg-18" value="..." style="text;strokeColor=none;fillColor=none;align=left;verticalAlign=top;spacingLeft=4;spacingRight=4;overflow=hidden;rotatable=0;points=[[0,0.5],[1,0.5]];portConstraint=eastwest;whiteSpace=wrap;html=1;" vertex="1" parent="lWsWk-xR8rJO-psTGuyg-12">
          <mxGeometry y="104" width="230" height="26" as="geometry" />
        </mxCell>
        <mxCell id="lWsWk-xR8rJO-psTGuyg-14" value="" style="line;strokeWidth=1;fillColor=none;align=left;verticalAlign=middle;spacingTop=-1;spacingLeft=3;spacingRight=3;rotatable=0;labelPosition=right;points=[];portConstraint=eastwest;strokeColor=inherit;" vertex="1" parent="lWsWk-xR8rJO-psTGuyg-12">
          <mxGeometry y="130" width="230" height="8" as="geometry" />
        </mxCell>
        <mxCell id="lWsWk-xR8rJO-psTGuyg-25" value="CalcMovementSpeed()" style="text;strokeColor=none;fillColor=none;align=left;verticalAlign=top;spacingLeft=4;spacingRight=4;overflow=hidden;rotatable=0;points=[[0,0.5],[1,0.5]];portConstraint=eastwest;whiteSpace=wrap;html=1;" vertex="1" parent="lWsWk-xR8rJO-psTGuyg-12">
          <mxGeometry y="138" width="230" height="26" as="geometry" />
        </mxCell>
        <mxCell id="lWsWk-xR8rJO-psTGuyg-19" value="SkillType" style="swimlane;fontStyle=1;align=center;verticalAlign=top;childLayout=stackLayout;horizontal=1;startSize=26;horizontalStack=0;resizeParent=1;resizeParentMax=0;resizeLast=0;collapsible=1;marginBottom=0;whiteSpace=wrap;html=1;" vertex="1" parent="1">
          <mxGeometry x="-520" y="-175" width="160" height="138" as="geometry" />
        </mxCell>
        <mxCell id="lWsWk-xR8rJO-psTGuyg-24" value="Reference: Object" style="text;strokeColor=none;fillColor=none;align=left;verticalAlign=top;spacingLeft=4;spacingRight=4;overflow=hidden;rotatable=0;points=[[0,0.5],[1,0.5]];portConstraint=eastwest;whiteSpace=wrap;html=1;" vertex="1" parent="lWsWk-xR8rJO-psTGuyg-19">
          <mxGeometry y="26" width="160" height="26" as="geometry" />
        </mxCell>
        <mxCell id="lWsWk-xR8rJO-psTGuyg-20" value="Level" style="text;strokeColor=none;fillColor=none;align=left;verticalAlign=top;spacingLeft=4;spacingRight=4;overflow=hidden;rotatable=0;points=[[0,0.5],[1,0.5]];portConstraint=eastwest;whiteSpace=wrap;html=1;" vertex="1" parent="lWsWk-xR8rJO-psTGuyg-19">
          <mxGeometry y="52" width="160" height="26" as="geometry" />
        </mxCell>
        <mxCell id="lWsWk-xR8rJO-psTGuyg-23" value="Amount" style="text;strokeColor=none;fillColor=none;align=left;verticalAlign=top;spacingLeft=4;spacingRight=4;overflow=hidden;rotatable=0;points=[[0,0.5],[1,0.5]];portConstraint=eastwest;whiteSpace=wrap;html=1;" vertex="1" parent="lWsWk-xR8rJO-psTGuyg-19">
          <mxGeometry y="78" width="160" height="26" as="geometry" />
        </mxCell>
        <mxCell id="lWsWk-xR8rJO-psTGuyg-21" value="" style="line;strokeWidth=1;fillColor=none;align=left;verticalAlign=middle;spacingTop=-1;spacingLeft=3;spacingRight=3;rotatable=0;labelPosition=right;points=[];portConstraint=eastwest;strokeColor=inherit;" vertex="1" parent="lWsWk-xR8rJO-psTGuyg-19">
          <mxGeometry y="104" width="160" height="8" as="geometry" />
        </mxCell>
        <mxCell id="lWsWk-xR8rJO-psTGuyg-22" value="+ method(type): type" style="text;strokeColor=none;fillColor=none;align=left;verticalAlign=top;spacingLeft=4;spacingRight=4;overflow=hidden;rotatable=0;points=[[0,0.5],[1,0.5]];portConstraint=eastwest;whiteSpace=wrap;html=1;" vertex="1" parent="lWsWk-xR8rJO-psTGuyg-19">
          <mxGeometry y="112" width="160" height="26" as="geometry" />
        </mxCell>
        <mxCell id="lWsWk-xR8rJO-psTGuyg-28" value="SkillManager" style="swimlane;fontStyle=1;align=center;verticalAlign=top;childLayout=stackLayout;horizontal=1;startSize=26;horizontalStack=0;resizeParent=1;resizeParentMax=0;resizeLast=0;collapsible=1;marginBottom=0;whiteSpace=wrap;html=1;" vertex="1" parent="1">
          <mxGeometry x="-725" y="-370" width="160" height="112" as="geometry" />
        </mxCell>
        <mxCell id="lWsWk-xR8rJO-psTGuyg-46" value="IMG_Unlocked" style="text;strokeColor=none;fillColor=none;align=left;verticalAlign=top;spacingLeft=4;spacingRight=4;overflow=hidden;rotatable=0;points=[[0,0.5],[1,0.5]];portConstraint=eastwest;whiteSpace=wrap;html=1;" vertex="1" parent="lWsWk-xR8rJO-psTGuyg-28">
          <mxGeometry y="26" width="160" height="26" as="geometry" />
        </mxCell>
        <mxCell id="lWsWk-xR8rJO-psTGuyg-44" value="IMG_Unlockable" style="text;strokeColor=none;fillColor=none;align=left;verticalAlign=top;spacingLeft=4;spacingRight=4;overflow=hidden;rotatable=0;points=[[0,0.5],[1,0.5]];portConstraint=eastwest;whiteSpace=wrap;html=1;" vertex="1" parent="lWsWk-xR8rJO-psTGuyg-28">
          <mxGeometry y="52" width="160" height="26" as="geometry" />
        </mxCell>
        <mxCell id="lWsWk-xR8rJO-psTGuyg-45" value="IMG_Locked" style="text;strokeColor=none;fillColor=none;align=left;verticalAlign=top;spacingLeft=4;spacingRight=4;overflow=hidden;rotatable=0;points=[[0,0.5],[1,0.5]];portConstraint=eastwest;whiteSpace=wrap;html=1;" vertex="1" parent="lWsWk-xR8rJO-psTGuyg-28">
          <mxGeometry y="78" width="160" height="26" as="geometry" />
        </mxCell>
        <mxCell id="lWsWk-xR8rJO-psTGuyg-32" value="" style="line;strokeWidth=1;fillColor=none;align=left;verticalAlign=middle;spacingTop=-1;spacingLeft=3;spacingRight=3;rotatable=0;labelPosition=right;points=[];portConstraint=eastwest;strokeColor=inherit;" vertex="1" parent="lWsWk-xR8rJO-psTGuyg-28">
          <mxGeometry y="104" width="160" height="8" as="geometry" />
        </mxCell>
        <mxCell id="lWsWk-xR8rJO-psTGuyg-34" value="ModComponent" style="swimlane;fontStyle=1;align=center;verticalAlign=top;childLayout=stackLayout;horizontal=1;startSize=26;horizontalStack=0;resizeParent=1;resizeParentMax=0;resizeLast=0;collapsible=1;marginBottom=0;whiteSpace=wrap;html=1;" vertex="1" parent="1">
          <mxGeometry x="-250" y="-245" width="160" height="86" as="geometry" />
        </mxCell>
        <mxCell id="lWsWk-xR8rJO-psTGuyg-35" value="Identifier" style="text;strokeColor=none;fillColor=none;align=left;verticalAlign=top;spacingLeft=4;spacingRight=4;overflow=hidden;rotatable=0;points=[[0,0.5],[1,0.5]];portConstraint=eastwest;whiteSpace=wrap;html=1;" vertex="1" parent="lWsWk-xR8rJO-psTGuyg-34">
          <mxGeometry y="26" width="160" height="26" as="geometry" />
        </mxCell>
        <mxCell id="lWsWk-xR8rJO-psTGuyg-36" value="Amount" style="text;strokeColor=none;fillColor=none;align=left;verticalAlign=top;spacingLeft=4;spacingRight=4;overflow=hidden;rotatable=0;points=[[0,0.5],[1,0.5]];portConstraint=eastwest;whiteSpace=wrap;html=1;" vertex="1" parent="lWsWk-xR8rJO-psTGuyg-34">
          <mxGeometry y="52" width="160" height="26" as="geometry" />
        </mxCell>
        <mxCell id="lWsWk-xR8rJO-psTGuyg-39" value="" style="line;strokeWidth=1;fillColor=none;align=left;verticalAlign=middle;spacingTop=-1;spacingLeft=3;spacingRight=3;rotatable=0;labelPosition=right;points=[];portConstraint=eastwest;strokeColor=inherit;" vertex="1" parent="lWsWk-xR8rJO-psTGuyg-34">
          <mxGeometry y="78" width="160" height="8" as="geometry" />
        </mxCell>
        <mxCell id="lWsWk-xR8rJO-psTGuyg-56" style="edgeStyle=orthogonalEdgeStyle;rounded=0;orthogonalLoop=1;jettySize=auto;html=1;" edge="1" parent="1" source="lWsWk-xR8rJO-psTGuyg-49" target="lWsWk-xR8rJO-psTGuyg-51">
          <mxGeometry relative="1" as="geometry" />
        </mxCell>
        <mxCell id="lWsWk-xR8rJO-psTGuyg-57" style="edgeStyle=orthogonalEdgeStyle;rounded=0;orthogonalLoop=1;jettySize=auto;html=1;" edge="1" parent="1" source="lWsWk-xR8rJO-psTGuyg-49" target="lWsWk-xR8rJO-psTGuyg-50">
          <mxGeometry relative="1" as="geometry" />
        </mxCell>
        <mxCell id="lWsWk-xR8rJO-psTGuyg-49" value="6" style="ellipse;whiteSpace=wrap;html=1;" vertex="1" parent="1">
          <mxGeometry x="590" y="490" width="40" height="40" as="geometry" />
        </mxCell>
        <mxCell id="lWsWk-xR8rJO-psTGuyg-58" style="edgeStyle=orthogonalEdgeStyle;rounded=0;orthogonalLoop=1;jettySize=auto;html=1;" edge="1" parent="1" source="lWsWk-xR8rJO-psTGuyg-50" target="lWsWk-xR8rJO-psTGuyg-53">
          <mxGeometry relative="1" as="geometry" />
        </mxCell>
        <mxCell id="lWsWk-xR8rJO-psTGuyg-59" style="edgeStyle=orthogonalEdgeStyle;rounded=0;orthogonalLoop=1;jettySize=auto;html=1;" edge="1" parent="1" source="lWsWk-xR8rJO-psTGuyg-50" target="lWsWk-xR8rJO-psTGuyg-52">
          <mxGeometry relative="1" as="geometry" />
        </mxCell>
        <mxCell id="lWsWk-xR8rJO-psTGuyg-50" value="2" style="ellipse;whiteSpace=wrap;html=1;" vertex="1" parent="1">
          <mxGeometry x="590" y="565" width="40" height="40" as="geometry" />
        </mxCell>
        <mxCell id="lWsWk-xR8rJO-psTGuyg-60" style="edgeStyle=orthogonalEdgeStyle;rounded=0;orthogonalLoop=1;jettySize=auto;html=1;" edge="1" parent="1" source="lWsWk-xR8rJO-psTGuyg-51" target="lWsWk-xR8rJO-psTGuyg-55">
          <mxGeometry relative="1" as="geometry" />
        </mxCell>
        <mxCell id="lWsWk-xR8rJO-psTGuyg-61" style="edgeStyle=orthogonalEdgeStyle;rounded=0;orthogonalLoop=1;jettySize=auto;html=1;" edge="1" parent="1" source="lWsWk-xR8rJO-psTGuyg-51" target="lWsWk-xR8rJO-psTGuyg-54">
          <mxGeometry relative="1" as="geometry" />
        </mxCell>
        <mxCell id="lWsWk-xR8rJO-psTGuyg-51" value="4" style="ellipse;whiteSpace=wrap;html=1;" vertex="1" parent="1">
          <mxGeometry x="868" y="565" width="40" height="40" as="geometry" />
        </mxCell>
        <mxCell id="lWsWk-xR8rJO-psTGuyg-52" value="1" style="ellipse;whiteSpace=wrap;html=1;" vertex="1" parent="1">
          <mxGeometry x="518" y="650" width="40" height="40" as="geometry" />
        </mxCell>
        <mxCell id="lWsWk-xR8rJO-psTGuyg-53" value="1" style="ellipse;whiteSpace=wrap;html=1;" vertex="1" parent="1">
          <mxGeometry x="584" y="650" width="40" height="40" as="geometry" />
        </mxCell>
        <mxCell id="lWsWk-xR8rJO-psTGuyg-65" style="edgeStyle=orthogonalEdgeStyle;rounded=0;orthogonalLoop=1;jettySize=auto;html=1;" edge="1" parent="1" source="lWsWk-xR8rJO-psTGuyg-54" target="lWsWk-xR8rJO-psTGuyg-62">
          <mxGeometry relative="1" as="geometry" />
        </mxCell>
        <mxCell id="lWsWk-xR8rJO-psTGuyg-66" style="edgeStyle=orthogonalEdgeStyle;rounded=0;orthogonalLoop=1;jettySize=auto;html=1;" edge="1" parent="1" source="lWsWk-xR8rJO-psTGuyg-54" target="lWsWk-xR8rJO-psTGuyg-63">
          <mxGeometry relative="1" as="geometry" />
        </mxCell>
        <mxCell id="lWsWk-xR8rJO-psTGuyg-67" style="edgeStyle=orthogonalEdgeStyle;rounded=0;orthogonalLoop=1;jettySize=auto;html=1;" edge="1" parent="1" source="lWsWk-xR8rJO-psTGuyg-54" target="lWsWk-xR8rJO-psTGuyg-64">
          <mxGeometry relative="1" as="geometry" />
        </mxCell>
        <mxCell id="lWsWk-xR8rJO-psTGuyg-54" value="3" style="ellipse;whiteSpace=wrap;html=1;" vertex="1" parent="1">
          <mxGeometry x="802" y="650" width="40" height="40" as="geometry" />
        </mxCell>
        <mxCell id="lWsWk-xR8rJO-psTGuyg-55" value="1" style="ellipse;whiteSpace=wrap;html=1;" vertex="1" parent="1">
          <mxGeometry x="868" y="650" width="40" height="40" as="geometry" />
        </mxCell>
        <mxCell id="lWsWk-xR8rJO-psTGuyg-62" value="1" style="ellipse;whiteSpace=wrap;html=1;" vertex="1" parent="1">
          <mxGeometry x="802" y="730" width="40" height="40" as="geometry" />
        </mxCell>
        <mxCell id="lWsWk-xR8rJO-psTGuyg-63" value="1" style="ellipse;whiteSpace=wrap;html=1;" vertex="1" parent="1">
          <mxGeometry x="740" y="730" width="40" height="40" as="geometry" />
        </mxCell>
        <mxCell id="lWsWk-xR8rJO-psTGuyg-64" value="1" style="ellipse;whiteSpace=wrap;html=1;" vertex="1" parent="1">
          <mxGeometry x="684" y="730" width="40" height="40" as="geometry" />
        </mxCell>
        <mxCell id="lWsWk-xR8rJO-psTGuyg-68" value="1" style="ellipse;whiteSpace=wrap;html=1;" vertex="1" parent="1">
          <mxGeometry x="960" y="800" width="40" height="40" as="geometry" />
        </mxCell>
        <mxCell id="lWsWk-xR8rJO-psTGuyg-69" value="1" style="ellipse;whiteSpace=wrap;html=1;" vertex="1" parent="1">
          <mxGeometry x="1040" y="800" width="40" height="40" as="geometry" />
        </mxCell>
        <mxCell id="lWsWk-xR8rJO-psTGuyg-71" style="rounded=0;orthogonalLoop=1;jettySize=auto;html=1;" edge="1" parent="1" source="lWsWk-xR8rJO-psTGuyg-70" target="lWsWk-xR8rJO-psTGuyg-69">
          <mxGeometry relative="1" as="geometry" />
        </mxCell>
        <mxCell id="lWsWk-xR8rJO-psTGuyg-72" style="rounded=0;orthogonalLoop=1;jettySize=auto;html=1;" edge="1" parent="1" source="lWsWk-xR8rJO-psTGuyg-70" target="lWsWk-xR8rJO-psTGuyg-68">
          <mxGeometry relative="1" as="geometry" />
        </mxCell>
        <mxCell id="lWsWk-xR8rJO-psTGuyg-70" value="1" style="ellipse;whiteSpace=wrap;html=1;" vertex="1" parent="1">
          <mxGeometry x="1040" y="720" width="40" height="40" as="geometry" />
        </mxCell>
        <mxCell id="lWsWk-xR8rJO-psTGuyg-73" value="1" style="ellipse;whiteSpace=wrap;html=1;" vertex="1" parent="1">
          <mxGeometry x="1120" y="880" width="40" height="40" as="geometry" />
        </mxCell>
        <mxCell id="lWsWk-xR8rJO-psTGuyg-74" value="1" style="ellipse;whiteSpace=wrap;html=1;" vertex="1" parent="1">
          <mxGeometry x="1201" y="880" width="40" height="40" as="geometry" />
        </mxCell>
        <mxCell id="lWsWk-xR8rJO-psTGuyg-75" value="1" style="ellipse;whiteSpace=wrap;html=1;" vertex="1" parent="1">
          <mxGeometry x="1280" y="880" width="40" height="40" as="geometry" />
        </mxCell>
        <mxCell id="lWsWk-xR8rJO-psTGuyg-77" style="rounded=0;orthogonalLoop=1;jettySize=auto;html=1;" edge="1" parent="1" source="lWsWk-xR8rJO-psTGuyg-76" target="lWsWk-xR8rJO-psTGuyg-75">
          <mxGeometry relative="1" as="geometry" />
        </mxCell>
        <mxCell id="lWsWk-xR8rJO-psTGuyg-78" style="rounded=0;orthogonalLoop=1;jettySize=auto;html=1;" edge="1" parent="1" source="lWsWk-xR8rJO-psTGuyg-76" target="lWsWk-xR8rJO-psTGuyg-74">
          <mxGeometry relative="1" as="geometry" />
        </mxCell>
        <mxCell id="lWsWk-xR8rJO-psTGuyg-79" style="rounded=0;orthogonalLoop=1;jettySize=auto;html=1;" edge="1" parent="1" source="lWsWk-xR8rJO-psTGuyg-76" target="lWsWk-xR8rJO-psTGuyg-73">
          <mxGeometry relative="1" as="geometry" />
        </mxCell>
        <mxCell id="lWsWk-xR8rJO-psTGuyg-76" value="1" style="ellipse;whiteSpace=wrap;html=1;" vertex="1" parent="1">
          <mxGeometry x="1280" y="800" width="40" height="40" as="geometry" />
        </mxCell>
        <mxCell id="lWsWk-xR8rJO-psTGuyg-80" value="1" style="ellipse;whiteSpace=wrap;html=1;" vertex="1" parent="1">
          <mxGeometry x="1360" y="800" width="40" height="40" as="geometry" />
        </mxCell>
        <mxCell id="lWsWk-xR8rJO-psTGuyg-82" style="rounded=0;orthogonalLoop=1;jettySize=auto;html=1;" edge="1" parent="1" source="lWsWk-xR8rJO-psTGuyg-81" target="lWsWk-xR8rJO-psTGuyg-80">
          <mxGeometry relative="1" as="geometry" />
        </mxCell>
        <mxCell id="lWsWk-xR8rJO-psTGuyg-83" style="rounded=0;orthogonalLoop=1;jettySize=auto;html=1;" edge="1" parent="1" source="lWsWk-xR8rJO-psTGuyg-81" target="lWsWk-xR8rJO-psTGuyg-76">
          <mxGeometry relative="1" as="geometry" />
        </mxCell>
        <mxCell id="lWsWk-xR8rJO-psTGuyg-81" value="1" style="ellipse;whiteSpace=wrap;html=1;" vertex="1" parent="1">
          <mxGeometry x="1360" y="720" width="40" height="40" as="geometry" />
        </mxCell>
        <mxCell id="lWsWk-xR8rJO-psTGuyg-96" style="rounded=0;orthogonalLoop=1;jettySize=auto;html=1;" edge="1" parent="1" source="lWsWk-xR8rJO-psTGuyg-95" target="lWsWk-xR8rJO-psTGuyg-81">
          <mxGeometry relative="1" as="geometry" />
        </mxCell>
        <mxCell id="lWsWk-xR8rJO-psTGuyg-97" style="rounded=0;orthogonalLoop=1;jettySize=auto;html=1;" edge="1" parent="1" source="lWsWk-xR8rJO-psTGuyg-95" target="lWsWk-xR8rJO-psTGuyg-70">
          <mxGeometry relative="1" as="geometry" />
        </mxCell>
        <mxCell id="lWsWk-xR8rJO-psTGuyg-95" value="1" style="ellipse;whiteSpace=wrap;html=1;" vertex="1" parent="1">
          <mxGeometry x="1360" y="640" width="40" height="40" as="geometry" />
        </mxCell>
        <mxCell id="lWsWk-xR8rJO-psTGuyg-98" value="1" style="ellipse;whiteSpace=wrap;html=1;" vertex="1" parent="1">
          <mxGeometry x="880" y="1160" width="40" height="40" as="geometry" />
        </mxCell>
        <mxCell id="lWsWk-xR8rJO-psTGuyg-99" value="1" style="ellipse;whiteSpace=wrap;html=1;" vertex="1" parent="1">
          <mxGeometry x="1040" y="1160" width="40" height="40" as="geometry" />
        </mxCell>
        <mxCell id="lWsWk-xR8rJO-psTGuyg-100" style="rounded=0;orthogonalLoop=1;jettySize=auto;html=1;" edge="1" source="lWsWk-xR8rJO-psTGuyg-102" target="lWsWk-xR8rJO-psTGuyg-99" parent="1">
          <mxGeometry relative="1" as="geometry" />
        </mxCell>
        <mxCell id="lWsWk-xR8rJO-psTGuyg-101" style="rounded=0;orthogonalLoop=1;jettySize=auto;html=1;" edge="1" source="lWsWk-xR8rJO-psTGuyg-102" target="lWsWk-xR8rJO-psTGuyg-98" parent="1">
          <mxGeometry relative="1" as="geometry" />
        </mxCell>
        <mxCell id="lWsWk-xR8rJO-psTGuyg-102" value="1" style="ellipse;whiteSpace=wrap;html=1;" vertex="1" parent="1">
          <mxGeometry x="960" y="1080" width="40" height="40" as="geometry" />
        </mxCell>
        <mxCell id="lWsWk-xR8rJO-psTGuyg-103" value="1" style="ellipse;whiteSpace=wrap;html=1;" vertex="1" parent="1">
          <mxGeometry x="1120" y="1240" width="40" height="40" as="geometry" />
        </mxCell>
        <mxCell id="lWsWk-xR8rJO-psTGuyg-104" value="1" style="ellipse;whiteSpace=wrap;html=1;" vertex="1" parent="1">
          <mxGeometry x="1201" y="1240" width="40" height="40" as="geometry" />
        </mxCell>
        <mxCell id="lWsWk-xR8rJO-psTGuyg-105" value="1" style="ellipse;whiteSpace=wrap;html=1;" vertex="1" parent="1">
          <mxGeometry x="1280" y="1240" width="40" height="40" as="geometry" />
        </mxCell>
        <mxCell id="lWsWk-xR8rJO-psTGuyg-106" style="rounded=0;orthogonalLoop=1;jettySize=auto;html=1;" edge="1" source="lWsWk-xR8rJO-psTGuyg-109" target="lWsWk-xR8rJO-psTGuyg-105" parent="1">
          <mxGeometry relative="1" as="geometry" />
        </mxCell>
        <mxCell id="lWsWk-xR8rJO-psTGuyg-107" style="rounded=0;orthogonalLoop=1;jettySize=auto;html=1;" edge="1" source="lWsWk-xR8rJO-psTGuyg-109" target="lWsWk-xR8rJO-psTGuyg-104" parent="1">
          <mxGeometry relative="1" as="geometry" />
        </mxCell>
        <mxCell id="lWsWk-xR8rJO-psTGuyg-108" style="rounded=0;orthogonalLoop=1;jettySize=auto;html=1;" edge="1" source="lWsWk-xR8rJO-psTGuyg-109" target="lWsWk-xR8rJO-psTGuyg-103" parent="1">
          <mxGeometry relative="1" as="geometry" />
        </mxCell>
        <mxCell id="lWsWk-xR8rJO-psTGuyg-109" value="1" style="ellipse;whiteSpace=wrap;html=1;" vertex="1" parent="1">
          <mxGeometry x="1200" y="1169" width="40" height="40" as="geometry" />
        </mxCell>
        <mxCell id="lWsWk-xR8rJO-psTGuyg-110" value="1" style="ellipse;whiteSpace=wrap;html=1;" vertex="1" parent="1">
          <mxGeometry x="1360" y="1169" width="40" height="40" as="geometry" />
        </mxCell>
        <mxCell id="lWsWk-xR8rJO-psTGuyg-111" style="rounded=0;orthogonalLoop=1;jettySize=auto;html=1;" edge="1" source="lWsWk-xR8rJO-psTGuyg-113" target="lWsWk-xR8rJO-psTGuyg-110" parent="1">
          <mxGeometry relative="1" as="geometry" />
        </mxCell>
        <mxCell id="lWsWk-xR8rJO-psTGuyg-112" style="rounded=0;orthogonalLoop=1;jettySize=auto;html=1;" edge="1" source="lWsWk-xR8rJO-psTGuyg-113" target="lWsWk-xR8rJO-psTGuyg-109" parent="1">
          <mxGeometry relative="1" as="geometry" />
        </mxCell>
        <mxCell id="lWsWk-xR8rJO-psTGuyg-113" value="1" style="ellipse;whiteSpace=wrap;html=1;" vertex="1" parent="1">
          <mxGeometry x="1280" y="1080" width="40" height="40" as="geometry" />
        </mxCell>
        <mxCell id="lWsWk-xR8rJO-psTGuyg-114" style="rounded=0;orthogonalLoop=1;jettySize=auto;html=1;" edge="1" source="lWsWk-xR8rJO-psTGuyg-116" target="lWsWk-xR8rJO-psTGuyg-113" parent="1">
          <mxGeometry relative="1" as="geometry" />
        </mxCell>
        <mxCell id="lWsWk-xR8rJO-psTGuyg-115" style="rounded=0;orthogonalLoop=1;jettySize=auto;html=1;" edge="1" source="lWsWk-xR8rJO-psTGuyg-116" target="lWsWk-xR8rJO-psTGuyg-102" parent="1">
          <mxGeometry relative="1" as="geometry" />
        </mxCell>
        <mxCell id="lWsWk-xR8rJO-psTGuyg-116" value="1" style="ellipse;whiteSpace=wrap;html=1;" vertex="1" parent="1">
          <mxGeometry x="1120" y="1000" width="40" height="40" as="geometry" />
        </mxCell>
        <mxCell id="lWsWk-xR8rJO-psTGuyg-117" value="1" style="ellipse;whiteSpace=wrap;html=1;" vertex="1" parent="1">
          <mxGeometry x="1720" y="800" width="40" height="40" as="geometry" />
        </mxCell>
        <mxCell id="lWsWk-xR8rJO-psTGuyg-118" value="1" style="ellipse;whiteSpace=wrap;html=1;" vertex="1" parent="1">
          <mxGeometry x="1800" y="800" width="40" height="40" as="geometry" />
        </mxCell>
        <mxCell id="lWsWk-xR8rJO-psTGuyg-119" style="rounded=0;orthogonalLoop=1;jettySize=auto;html=1;" edge="1" source="lWsWk-xR8rJO-psTGuyg-121" target="lWsWk-xR8rJO-psTGuyg-118" parent="1">
          <mxGeometry relative="1" as="geometry" />
        </mxCell>
        <mxCell id="lWsWk-xR8rJO-psTGuyg-120" style="rounded=0;orthogonalLoop=1;jettySize=auto;html=1;" edge="1" source="lWsWk-xR8rJO-psTGuyg-121" target="lWsWk-xR8rJO-psTGuyg-117" parent="1">
          <mxGeometry relative="1" as="geometry" />
        </mxCell>
        <mxCell id="lWsWk-xR8rJO-psTGuyg-121" value="1" style="ellipse;whiteSpace=wrap;html=1;" vertex="1" parent="1">
          <mxGeometry x="1800" y="720" width="40" height="40" as="geometry" />
        </mxCell>
        <mxCell id="lWsWk-xR8rJO-psTGuyg-122" value="1" style="ellipse;whiteSpace=wrap;html=1;" vertex="1" parent="1">
          <mxGeometry x="1720" y="880" width="40" height="40" as="geometry" />
        </mxCell>
        <mxCell id="lWsWk-xR8rJO-psTGuyg-123" value="1" style="ellipse;whiteSpace=wrap;html=1;" vertex="1" parent="1">
          <mxGeometry x="1801" y="880" width="40" height="40" as="geometry" />
        </mxCell>
        <mxCell id="lWsWk-xR8rJO-psTGuyg-124" value="1" style="ellipse;whiteSpace=wrap;html=1;" vertex="1" parent="1">
          <mxGeometry x="1880" y="880" width="40" height="40" as="geometry" />
        </mxCell>
        <mxCell id="lWsWk-xR8rJO-psTGuyg-125" style="rounded=0;orthogonalLoop=1;jettySize=auto;html=1;" edge="1" source="lWsWk-xR8rJO-psTGuyg-128" target="lWsWk-xR8rJO-psTGuyg-124" parent="1">
          <mxGeometry relative="1" as="geometry" />
        </mxCell>
        <mxCell id="lWsWk-xR8rJO-psTGuyg-126" style="rounded=0;orthogonalLoop=1;jettySize=auto;html=1;" edge="1" source="lWsWk-xR8rJO-psTGuyg-128" target="lWsWk-xR8rJO-psTGuyg-123" parent="1">
          <mxGeometry relative="1" as="geometry" />
        </mxCell>
        <mxCell id="lWsWk-xR8rJO-psTGuyg-127" style="rounded=0;orthogonalLoop=1;jettySize=auto;html=1;" edge="1" source="lWsWk-xR8rJO-psTGuyg-128" target="lWsWk-xR8rJO-psTGuyg-122" parent="1">
          <mxGeometry relative="1" as="geometry" />
        </mxCell>
        <mxCell id="lWsWk-xR8rJO-psTGuyg-128" value="1" style="ellipse;whiteSpace=wrap;html=1;" vertex="1" parent="1">
          <mxGeometry x="1880" y="800" width="40" height="40" as="geometry" />
        </mxCell>
        <mxCell id="lWsWk-xR8rJO-psTGuyg-129" value="1" style="ellipse;whiteSpace=wrap;html=1;" vertex="1" parent="1">
          <mxGeometry x="1960" y="800" width="40" height="40" as="geometry" />
        </mxCell>
        <mxCell id="lWsWk-xR8rJO-psTGuyg-130" style="rounded=0;orthogonalLoop=1;jettySize=auto;html=1;" edge="1" source="lWsWk-xR8rJO-psTGuyg-132" target="lWsWk-xR8rJO-psTGuyg-129" parent="1">
          <mxGeometry relative="1" as="geometry" />
        </mxCell>
        <mxCell id="lWsWk-xR8rJO-psTGuyg-131" style="rounded=0;orthogonalLoop=1;jettySize=auto;html=1;" edge="1" source="lWsWk-xR8rJO-psTGuyg-132" target="lWsWk-xR8rJO-psTGuyg-128" parent="1">
          <mxGeometry relative="1" as="geometry" />
        </mxCell>
        <mxCell id="lWsWk-xR8rJO-psTGuyg-132" value="1" style="ellipse;whiteSpace=wrap;html=1;" vertex="1" parent="1">
          <mxGeometry x="1960" y="720" width="40" height="40" as="geometry" />
        </mxCell>
        <mxCell id="lWsWk-xR8rJO-psTGuyg-133" style="rounded=0;orthogonalLoop=1;jettySize=auto;html=1;" edge="1" source="lWsWk-xR8rJO-psTGuyg-135" target="lWsWk-xR8rJO-psTGuyg-132" parent="1">
          <mxGeometry relative="1" as="geometry" />
        </mxCell>
        <mxCell id="lWsWk-xR8rJO-psTGuyg-134" style="rounded=0;orthogonalLoop=1;jettySize=auto;html=1;" edge="1" source="lWsWk-xR8rJO-psTGuyg-135" target="lWsWk-xR8rJO-psTGuyg-121" parent="1">
          <mxGeometry relative="1" as="geometry" />
        </mxCell>
        <mxCell id="lWsWk-xR8rJO-psTGuyg-135" value="1" style="ellipse;whiteSpace=wrap;html=1;" vertex="1" parent="1">
          <mxGeometry x="1960" y="640" width="40" height="40" as="geometry" />
        </mxCell>
      </root>
    </mxGraphModel>
  </diagram>
</mxfile>
